<?xml version="1.0" standalone="no"?>
<!DOCTYPE svg PUBLIC "-//W3C//DTD SVG 20010904//EN"
 "http://www.w3.org/TR/2001/REC-SVG-20010904/DTD/svg10.dtd">
<svg version="1.0" xmlns="http://www.w3.org/2000/svg"
 width="1053.000000pt" height="1053.000000pt" viewBox="0 0 1053.000000 1053.000000"
 preserveAspectRatio="xMidYMid meet">
<metadata>
Created by potrace 1.14, written by Peter Selinger 2001-2017
</metadata>
<g transform="translate(0.000000,1053.000000) scale(0.100000,-0.100000)"
fill="#000000" stroke="none">
<path d="M5120 10370 c-219 -47 -262 -66 -2005 -898 -1866 -890 -1954 -935
-2060 -1055 -96 -108 -165 -295 -259 -707 -183 -798 -328 -1432 -401 -1760
-132 -590 -200 -880 -275 -1180 -75 -296 -92 -403 -111 -691 -24 -363 -59
-305 891 -1474 130 -159 441 -546 691 -860 368 -461 1097 -1361 1170 -1446 24
-26 198 -88 298 -105 198 -32 538 -38 2331 -39 1830 0 1942 2 2095 41 107 28
151 59 326 234 231 230 509 558 894 1055 203 261 327 417 779 975 715 883 947
1181 984 1267 34 81 52 160 59 263 8 126 -8 235 -67 465 -27 105 -88 359 -134
565 -47 206 -182 791 -300 1300 -460 1973 -434 1869 -504 1984 -75 125 -226
246 -455 366 -62 32 -274 135 -472 228 -198 93 -607 288 -910 432 -302 144
-599 286 -660 315 -94 45 -481 231 -1035 498 -241 116 -311 147 -402 182 -171
66 -309 80 -468 45z m625 -2330 c278 -29 502 -87 690 -180 150 -74 266 -161
390 -293 228 -241 290 -362 330 -642 36 -257 38 -376 42 -2349 l4 -1949 -353
6 c-208 4 -369 11 -393 18 -91 25 -115 75 -155 325 -17 104 -32 193 -33 198
-2 5 -30 -15 -63 -45 -129 -118 -269 -211 -474 -314 -696 -350 -1427 -401
-1975 -140 -202 97 -404 263 -541 445 -81 107 -188 319 -215 425 -39 156 -49
617 -18 875 33 285 123 467 337 691 317 331 649 498 1146 579 393 64 962 34
1529 -82 84 -17 168 -31 186 -32 33 -1 35 1 44 39 10 44 2 474 -13 710 -24
370 -67 500 -210 646 -62 63 -92 85 -170 122 -175 85 -402 135 -650 144 -171
6 -335 -5 -625 -42 -364 -47 -640 -101 -1002 -197 -128 -34 -236 -59 -239 -56
-15 16 -24 162 -24 429 l0 296 183 76 c100 41 225 89 277 105 346 110 761 177
1250 202 186 10 606 4 745 -10z"/>
<path d="M4970 4979 c-362 -32 -624 -121 -762 -261 -78 -79 -154 -220 -190
-353 -30 -111 -33 -415 -5 -515 40 -142 110 -272 188 -348 58 -57 219 -136
329 -161 288 -67 683 -13 1079 145 154 62 261 117 461 236 l140 83 0 511 c0
281 -3 525 -6 541 l-6 30 -186 32 c-103 17 -239 39 -302 47 -140 18 -594 26
-740 13z"/>
</g>
</svg>
